0
SECTION
2
HEADER
9
$INSUNITS
70
4
9
$ACADVER
1
AC1014
9
$HANDSEED
5
FFFF
0
ENDSEC
0
SECTION
2
TABLES
0
TABLE
2
VPORT
5
8
100
AcDbSymbolTable
0
ENDTAB
0
TABLE
2
LTYPE
5
5
100
AcDbSymbolTable
0
LTYPE
5
14
100
AcDbSymbolTableRecord
100
AcDbLinetypeTableRecord
2
BYBLOCK
70
0
0
LTYPE
5
15
100
AcDbSymbolTableRecord
100
AcDbLinetypeTableRecord
2
BYLAYER
70
0
0
ENDTAB
0
TABLE
2
LAYER
5
2
100
AcDbSymbolTable
70
2
0
LAYER
5
50
100
AcDbSymbolTableRecord
100
AcDbLayerTableRecord
2
0
70
0
6
CONTINUOUS
0
ENDTAB
0
TABLE
2
STYLE
5
3
100
AcDbSymbolTable
70
1
0
STYLE
5
11
100
AcDbSymbolTableRecord
100
AcDbTextStyleTableRecord
2
STANDARD
70
0
0
ENDTAB
0
TABLE
2
VIEW
5
6
100
AcDbSymbolTable
70
0
0
ENDTAB
0
TABLE
2
UCS
5
7
100
AcDbSymbolTable
70
0
0
ENDTAB
0
TABLE
2
APPID
5
9
100
AcDbSymbolTable
70
2
0
APPID
5
12
100
AcDbSymbolTableRecord
100
AcDbRegAppTableRecord
2
ACAD
70
0
0
ENDTAB
0
TABLE
2
DIMSTYLE
5
A
100
AcDbSymbolTable
70
1
0
ENDTAB
0
TABLE
2
BLOCK_RECORD
5
1
100
AcDbSymbolTable
70
1
0
BLOCK_RECORD
5
1F
100
AcDbSymbolTableRecord
100
AcDbBlockTableRecord
2
*MODEL_SPACE
0
BLOCK_RECORD
5
1B
100
AcDbSymbolTableRecord
100
AcDbBlockTableRecord
2
*PAPER_SPACE
0
ENDTAB
0
ENDSEC
0
SECTION
2
BLOCKS
0
BLOCK
5
20
100
AcDbEntity
100
AcDbBlockBegin
2
*MODEL_SPACE
0
ENDBLK
5
21
100
AcDbEntity
100
AcDbBlockEnd
0
BLOCK
5
1C
100
AcDbEntity
100
AcDbBlockBegin
2
*PAPER_SPACE
0
ENDBLK
5
1D
100
AcDbEntity
100
AcDbBlockEnd
0
ENDSEC
0
SECTION
2
ENTITIES
0
LWPOLYLINE
5
100
100
AcDbEntity
8
0
100
AcDbPolyline
90
8
70
1
43
0.0
10
-108.60807835047432
20
-126.89871369036112
10
-108.60807835047432
20
-201.4987136903608
10
-81.308078350474219
20
-201.4987136903608
10
-81.308078350474261
20
-191.49871369036083
10
-66.308078350474261
20
-191.49871369036083
10
-66.308078350474318
20
-136.89871359499369
10
-81.308078350474261
20
-136.89871359499369
10
-81.308078350474261
20
-126.89871369036118
0
CIRCLE
5
101
100
AcDbEntity
8
0
100
AcDbCircle
10
-97.45047578958129
20
-116.23826946844341
30
0
40
1.5000000000000024
210
0
220
0
230
1
0
LWPOLYLINE
5
102
100
AcDbEntity
8
0
100
AcDbPolyline
90
8
70
1
43
0.0
10
-31.308078350474275
20
-201.4987136903608
10
-31.308078350474293
20
-191.49871369036083
10
-16.308078350474293
20
-191.49871369036083
10
-16.308078350474364
20
-136.89871359499369
10
-31.308078350474311
20
-136.89871359499369
10
-31.308078350474311
20
-126.89871369036118
10
-58.608078350474372
20
-126.89871369036112
10
-58.608078350474351
20
-201.4987136903608
0
LWPOLYLINE
5
103
100
AcDbEntity
8
0
100
AcDbPolyline
90
8
70
1
43
0.0
10
265.52313869215942
20
-185.54897680432046
10
307.82203928386321
20
-185.54934881980938
10
307.82203928386321
20
-212.84889534701617
10
275.62572446977344
20
-245.04521016110576
10
211.40041084385444
20
-245.04464530454666
10
211.40054244295587
20
-230.08156587306033
10
230.7696896988042
20
-230.08156597151714
10
265.52313864245031
20
-195.32811738118721
0
LWPOLYLINE
5
104
100
AcDbEntity
8
0
100
AcDbPolyline
90
8
70
1
43
0.0
10
189.68957679064491
20
-32.425493281054742
10
125.46426316472574
20
-32.424928424495562
10
125.46439476382714
20
-17.461848993009195
10
144.83354201967555
20
-17.461849091466011
10
179.5869909633218
20
17.291599498864034
10
179.58699101303091
20
27.07074007573075
10
221.88589160473472
20
27.070368060241922
10
221.88589160473472
20
-0.22917846696495658
0
CIRCLE
5
105
100
AcDbEntity
8
0
100
AcDbCircle
10
-46.199970726192959
20
-93.837764405055154
30
0
40
1.5000000000000024
210
0
220
0
230
1
0
CIRCLE
5
106
100
AcDbEntity
8
0
100
AcDbCircle
10
-27.558583413862721
20
-154.29921875374936
30
0
40
1.4999999999999936
210
0
220
0
230
1
0
CIRCLE
5
107
100
AcDbEntity
8
0
100
AcDbCircle
10
-97.357573287086012
20
-174.09820862697259
30
0
40
1.5000000000000024
210
0
220
0
230
1
0
CIRCLE
5
108
100
AcDbEntity
8
0
100
AcDbCircle
10
-26.400980852969642
20
-93.837764405055154
30
8.8817841970012492e-15
40
1.4999999999999936
210
0
220
0
230
1
0
CIRCLE
5
109
100
AcDbEntity
8
0
100
AcDbCircle
10
-35.150475789581236
20
-51.638269468443731
30
0
40
1.5000000000000024
210
0
220
0
230
1
0
LWPOLYLINE
5
110
100
AcDbEntity
8
0
100
AcDbPolyline
90
8
70
1
43
0.0
10
217.00055372510093
20
-183.24032800051955
10
217.00055372510093
20
-210.53987452772643
10
184.80423891101108
20
-242.73618934181613
10
120.57892528509186
20
-242.73562448525695
10
120.57905688419326
20
-227.77254505377059
10
139.9482041400417
20
-227.77254515222748
10
174.70165308368789
20
-193.01909656189738
10
174.70165313339703
20
-183.23995598503069
0
CIRCLE
5
111
100
AcDbEntity
8
0
100
AcDbCircle
10
-86.308078350474219
20
-196.4987136903608
30
-8.8817841970012492e-15
40
1.4999999999999936
210
0
220
0
230
1
0
CIRCLE
5
112
100
AcDbEntity
8
0
100
AcDbCircle
10
-27.558583413862721
20
-174.09820862697259
30
8.8817841970012492e-15
40
1.4999999999999936
210
0
220
0
230
1
0
LWPOLYLINE
5
113
100
AcDbEntity
8
0
100
AcDbPolyline
90
8
70
1
43
0.0
10
-65.150475789581265
20
-56.638269373076255
10
-80.150475789581236
20
-56.638269373076284
10
-80.150475789581236
20
-46.638269468443745
10
-107.45047578958129
20
-46.638269468443696
10
-107.45047578958129
20
-121.23826946844341
10
-80.150475789581179
20
-121.23826946844341
10
-80.150475789581236
20
-111.23826946844346
10
-65.150475789581179
20
-111.23826946844346
0
LWPOLYLINE
5
114
100
AcDbEntity
8
0
100
AcDbPolyline
90
8
70
1
43
0.0
10
235.65502757843802
20
-19.77086991075593
10
270.40847652208413
20
14.982578679574008
10
270.40847657179324
20
24.761719256440692
10
312.70737716349686
20
24.761347240951856
10
312.70737716349686
20
-2.5381992862549296
10
280.51106234940727
20
-34.734514100344626
10
216.28574872348824
20
-34.733949243785446
10
216.28588032258961
20
-19.770869812299114
0
CIRCLE
5
115
100
AcDbEntity
8
0
100
AcDbCircle
10
237.62842550953067
20
-168.89081353085163
30
0
40
1.4999999999999949
210
0
220
0
230
1
0
CIRCLE
5
116
100
AcDbEntity
8
0
100
AcDbCircle
10
-87.458078350474324
20
-164.19871369036102
30
-8.8817841970012492e-15
40
10.999999999999988
210
0
220
0
230
1
0
CIRCLE
5
117
100
AcDbEntity
8
0
100
AcDbCircle
10
-48.608078350474358
20
-196.4987136903608
30
0
40
1.5000000000000024
210
0
220
0
230
1
0
CIRCLE
5
118
100
AcDbEntity
8
0
100
AcDbCircle
10
-47.450475789581326
20
-51.638269617455279
30
8.8817841970012492e-15
40
1.5000000000000024
210
0
220
0
230
1
0
CIRCLE
5
119
100
AcDbEntity
8
0
100
AcDbCircle
10
182.2016530908835
20
-190.73987452772738
30
0
40
1.5000000000000049
210
0
220
0
230
1
0
CIRCLE
5
120
100
AcDbEntity
8
0
100
AcDbCircle
10
273.02313859881411
20
-203.04889534701715
30
0
40
1.4999999999999956
210
0
220
0
230
1
0
CIRCLE
5
121
100
AcDbEntity
8
0
100
AcDbCircle
10
228.9004764813381
20
-237.58156595762543
30
0
40
1.5000000000000033
210
0
220
0
230
1
0
CIRCLE
5
122
100
AcDbEntity
8
0
100
AcDbCircle
10
290.52313865769383
20
-193.0488953978537
30
0
40
1.5000000000000049
210
0
220
0
230
1
0
CIRCLE
5
123
100
AcDbEntity
8
0
100
AcDbCircle
10
146.80693995076814
20
-166.58179271156175
30
0
40
1.4999999999999949
210
0
220
0
230
1
0
CIRCLE
5
124
100
AcDbEntity
8
0
100
AcDbCircle
10
302.82203932184592
20
-193.0488953978537
30
0
40
1.5000000000000049
210
0
220
0
230
1
0
CIRCLE
5
125
100
AcDbEntity
8
0
100
AcDbCircle
10
273.02313864964583
20
-193.04889534701718
30
0
40
1.5000000000000049
210
0
220
0
230
1
0
CIRCLE
5
126
100
AcDbEntity
8
0
100
AcDbCircle
10
216.88589164271752
20
19.570821482197548
30
0
40
1.5000000000000049
210
0
220
0
230
1
0
CIRCLE
5
127
100
AcDbEntity
8
0
100
AcDbCircle
10
-77.558583413862692
20
-174.09820862697259
30
8.8817841970012492e-15
40
1.4999999999999936
210
0
220
0
230
1
0
CIRCLE
5
128
100
AcDbEntity
8
0
100
AcDbCircle
10
279.18052750108711
20
-51.428951763861562
30
0
40
1.5000000000000049
210
0
220
0
230
1
0
CIRCLE
5
129
100
AcDbEntity
8
0
100
AcDbCircle
10
180.92960206824418
20
-132.04912205012153
30
0
40
1.4999999999999956
210
0
220
0
230
1
0
CIRCLE
5
130
100
AcDbEntity
8
0
100
AcDbCircle
10
198.42960212712401
20
-122.04912210095806
30
0
40
1.5000000000000049
210
0
220
0
230
1
0
CIRCLE
5
131
100
AcDbEntity
8
0
100
AcDbCircle
10
-47.45047578958129
20
-116.23826946844341
30
0
40
1.5000000000000024
210
0
220
0
230
1
0
CIRCLE
5
132
100
AcDbEntity
8
0
100
AcDbCircle
10
-97.357573287086012
20
-154.29921875374936
30
0
40
1.5000000000000024
210
0
220
0
230
1
0
CIRCLE
5
133
100
AcDbEntity
8
0
100
AcDbCircle
10
182.20165304005172
20
-200.73987452772735
30
0
40
1.4999999999999956
210
0
220
0
230
1
0
CIRCLE
5
134
100
AcDbEntity
8
0
100
AcDbCircle
10
-46.19997072619298
20
-74.038774531831976
30
0
40
1.5000000000000024
210
0
220
0
230
1
0
LWPOLYLINE
5
135
100
AcDbEntity
8
0
100
AcDbPolyline
90
8
70
1
43
0.0
10
271.68052749389165
20
-53.708173798031559
10
271.6805275436007
20
-43.929033221164893
10
313.97942813530437
20
-43.92940523665375
10
313.97942813530437
20
-71.228951763860465
10
281.78311332121473
20
-103.42526657795014
10
217.5577996952957
20
-103.42470172139096
10
217.55793129439712
20
-88.461622289904639
10
236.92707855024551
20
-88.461622388361434
0
LWPOLYLINE
5
136
100
AcDbEntity
8
0
100
AcDbPolyline
90
8
70
1
43
0.0
10
210.12835987204696
20
-176.35389282694106
10
210.12849147114838
20
-161.3908133954547
10
229.49763872699668
20
-161.39081349391154
10
264.25108767064285
20
-126.63736490358161
10
264.25108772035196
20
-116.85822432671493
10
306.54998831205563
20
-116.85859634220378
10
306.54998831205563
20
-144.15814286941054
10
274.35367349796599
20
-176.35445768350024
0
CIRCLE
5
137
100
AcDbEntity
8
0
100
AcDbCircle
10
301.54998835003852
20
-124.35814292024808
30
0
40
1.5000000000000049
210
0
220
0
230
1
0
CIRCLE
5
138
100
AcDbEntity
8
0
100
AcDbCircle
10
128.07899092257557
20
-235.27254508750389
30
0
40
1.5000000000000002
210
0
220
0
230
1
0
CIRCLE
5
139
100
AcDbEntity
8
0
100
AcDbCircle
10
243.78581436097198
20
-27.270869947696017
30
0
40
1.4999999999999949
210
0
220
0
230
1
0
CIRCLE
5
140
100
AcDbEntity
8
0
100
AcDbCircle
10
235.05786533277941
20
-95.961622374469812
30
0
40
1.5000000000000033
210
0
220
0
230
1
0
LWPOLYLINE
5
141
100
AcDbEntity
8
0
100
AcDbPolyline
90
8
70
1
43
0.0
10
215.72850275329344
20
-141.84912205012057
10
183.5321879392036
20
-174.04543686421036
10
119.30687431328437
20
-174.04487200765118
10
119.30700591238579
20
-159.08179257616482
10
138.67615316823421
20
-159.08179267462162
10
173.42960211188046
20
-124.32834408429157
10
173.42960216158954
20
-114.54920350742485
10
215.72850275329344
20
-114.54957552291368
0
CIRCLE
5
142
100
AcDbEntity
8
0
100
AcDbCircle
10
126.80693995076814
20
-166.58179260989812
30
0
40
1.5000000000000002
210
0
220
0
230
1
0
CIRCLE
5
143
100
AcDbEntity
8
0
100
AcDbCircle
10
-26.400980852969642
20
-74.038774531831976
30
0
40
1.4999999999999936
210
0
220
0
230
1
0
LWPOLYLINE
5
144
100
AcDbEntity
8
0
100
AcDbPolyline
90
8
70
1
43
0.0
10
190.96162776245239
20
-101.11624575866053
10
126.73631413653318
20
-101.1156809021013
10
126.73644573563465
20
-86.152601470614982
10
146.10559299148301
20
-86.152601569071805
10
180.85904193512928
20
-51.399152978741746
10
180.85904198483837
20
-41.620012401875059
10
223.15794257654218
20
-41.620384417363915
10
223.15794257654218
20
-68.919930944570723
0
CIRCLE
5
145
100
AcDbEntity
8
0
100
AcDbCircle
10
-48.608078350474386
20
-131.89871383937265
30
8.8817841970012492e-15
40
1.5000000000000024
210
0
220
0
230
1
0
CIRCLE
5
146
100
AcDbEntity
8
0
100
AcDbCircle
10
138.0789909225756
20
-235.27254513833583
30
0
40
1.5000000000000033
210
0
220
0
230
1
0
LWPOLYLINE
5
147
100
AcDbEntity
8
0
100
AcDbPolyline
90
8
70
1
43
0.0
10
-15.150475789581268
20
-56.638269373076255
10
-30.150475789581233
20
-56.638269373076284
10
-30.150475789581233
20
-46.638269468443745
10
-57.450475789581326
20
-46.638269468443696
10
-57.45047578958129
20
-121.23826946844341
10
-30.150475789581215
20
-121.23826946844341
10
-30.150475789581233
20
-111.23826946844346
10
-15.150475789581215
20
-111.23826946844346
0
CIRCLE
5
148
100
AcDbEntity
8
0
100
AcDbCircle
10
-86.308078350474261
20
-131.89871369036112
30
0
40
1.5000000000000024
210
0
220
0
230
1
0
CIRCLE
5
149
100
AcDbEntity
8
0
100
AcDbCircle
10
-98.608078350474372
20
-131.89871383937265
30
8.8817841970012492e-15
40
1.5000000000000024
210
0
220
0
230
1
0
CIRCLE
5
150
100
AcDbEntity
8
0
100
AcDbCircle
10
199.7016530989315
20
-190.73987457856387
30
0
40
1.5000000000000049
210
0
220
0
230
1
0
CIRCLE
5
151
100
AcDbEntity
8
0
100
AcDbCircle
10
-35.150475789581215
20
-116.23826946844341
30
-8.8817841970012492e-15
40
1.4999999999999936
210
0
220
0
230
1
0
CIRCLE
5
152
100
AcDbEntity
8
0
100
AcDbCircle
10
-36.300475789581277
20
-83.938269468443551
30
-8.8817841970012492e-15
40
10.999999999999988
210
0
220
0
230
1
0
CIRCLE
5
153
100
AcDbEntity
8
0
100
AcDbCircle
10
-76.400980852969667
20
-93.837764405055154
30
8.8817841970012492e-15
40
1.4999999999999936
210
0
220
0
230
1
0
CIRCLE
5
154
100
AcDbEntity
8
0
100
AcDbCircle
10
-36.308078350474283
20
-196.4987136903608
30
-8.8817841970012492e-15
40
1.4999999999999936
210
0
220
0
230
1
0
CIRCLE
5
155
100
AcDbEntity
8
0
100
AcDbCircle
10
-77.558583413862692
20
-154.29921875374936
30
0
40
1.4999999999999936
210
0
220
0
230
1
0
CIRCLE
5
156
100
AcDbEntity
8
0
100
AcDbCircle
10
223.78581436097198
20
-27.27086984603238
30
0
40
1.5000000000000002
210
0
220
0
230
1
0
CIRCLE
5
157
100
AcDbEntity
8
0
100
AcDbCircle
10
238.9004764813381
20
-237.5815660084572
30
0
40
1.4999999999999949
210
0
220
0
230
1
0
CIRCLE
5
158
100
AcDbEntity
8
0
100
AcDbCircle
10
-36.308078350474318
20
-131.89871369036112
30
0
40
1.5000000000000024
210
0
220
0
230
1
0
CIRCLE
5
159
100
AcDbEntity
8
0
100
AcDbCircle
10
-85.150475789581236
20
-51.638269468443731
30
0
40
1.5000000000000024
210
0
220
0
230
1
0
CIRCLE
5
160
100
AcDbEntity
8
0
100
AcDbCircle
10
-86.300475789581256
20
-83.938269468443551
30
-8.8817841970012492e-15
40
10.999999999999988
210
0
220
0
230
1
0
CIRCLE
5
161
100
AcDbEntity
8
0
100
AcDbCircle
10
-76.400980852969667
20
-74.038774531831976
30
0
40
1.4999999999999936
210
0
220
0
230
1
0
CIRCLE
5
162
100
AcDbEntity
8
0
100
AcDbCircle
10
-96.199970726192987
20
-74.038774531831976
30
0
40
1.5000000000000024
210
0
220
0
230
1
0
CIRCLE
5
163
100
AcDbEntity
8
0
100
AcDbCircle
10
-85.150475789581179
20
-116.23826946844341
30
-8.8817841970012492e-15
40
1.4999999999999936
210
0
220
0
230
1
0
CIRCLE
5
164
100
AcDbEntity
8
0
100
AcDbCircle
10
-47.357573287086019
20
-174.09820862697259
30
0
40
1.5000000000000024
210
0
220
0
230
1
0
CIRCLE
5
165
100
AcDbEntity
8
0
100
AcDbCircle
10
-97.450475789581333
20
-51.638269617455279
30
8.8817841970012492e-15
40
1.5000000000000024
210
0
220
0
230
1
0
CIRCLE
5
166
100
AcDbEntity
8
0
100
AcDbCircle
10
212.0005537630837
20
-190.73987457856387
30
0
40
1.5000000000000049
210
0
220
0
230
1
0
CIRCLE
5
167
100
AcDbEntity
8
0
100
AcDbCircle
10
233.78581436097198
20
-27.270869896864291
30
0
40
1.5000000000000033
210
0
220
0
230
1
0
CIRCLE
5
168
100
AcDbEntity
8
0
100
AcDbCircle
10
204.58699097856538
20
19.570821482197548
30
0
40
1.5000000000000049
210
0
220
0
230
1
0
CIRCLE
5
169
100
AcDbEntity
8
0
100
AcDbCircle
10
227.62842550953067
20
-168.89081348001992
30
0
40
1.5000000000000033
210
0
220
0
230
1
0
CIRCLE
5
170
100
AcDbEntity
8
0
100
AcDbCircle
10
279.18052745025534
20
-61.42895176386147
30
0
40
1.4999999999999956
210
0
220
0
230
1
0
CIRCLE
5
171
100
AcDbEntity
8
0
100
AcDbCircle
10
277.90847647844782
20
7.2618007137440621
30
0
40
1.4999999999999956
210
0
220
0
230
1
0
CIRCLE
5
172
100
AcDbEntity
8
0
100
AcDbCircle
10
142.96432880220948
20
-24.961849077574406
30
0
40
1.5000000000000033
210
0
220
0
230
1
0
CIRCLE
5
173
100
AcDbEntity
8
0
100
AcDbCircle
10
218.15794261452496
20
-49.119930995408239
30
0
40
1.5000000000000049
210
0
220
0
230
1
0
CIRCLE
5
174
100
AcDbEntity
8
0
100
AcDbCircle
10
205.85904195037287
20
-49.119930995408239
30
0
40
1.5000000000000049
210
0
220
0
230
1
0
CIRCLE
5
175
100
AcDbEntity
8
0
100
AcDbCircle
10
132.96432880220942
20
-24.961849026742492
30
0
40
1.5000000000000002
210
0
220
0
230
1
0
CIRCLE
5
176
100
AcDbEntity
8
0
100
AcDbCircle
10
308.9794281732872
20
-51.428951814698046
30
0
40
1.5000000000000049
210
0
220
0
230
1
0
CIRCLE
5
177
100
AcDbEntity
8
0
100
AcDbCircle
10
188.35904194232484
20
-49.119930944571763
30
0
40
1.5000000000000049
210
0
220
0
230
1
0
CIRCLE
5
178
100
AcDbEntity
8
0
100
AcDbCircle
10
152.96432880220948
20
-24.961849128406133
30
0
40
1.4999999999999949
210
0
220
0
230
1
0
CIRCLE
5
179
100
AcDbEntity
8
0
100
AcDbCircle
10
217.62842550953067
20
-168.890813429188
30
0
40
1.5000000000000002
210
0
220
0
230
1
0
CIRCLE
5
180
100
AcDbEntity
8
0
100
AcDbCircle
10
289.25108768588632
20
-124.35814292024808
30
0
40
1.5000000000000049
210
0
220
0
230
1
0
CIRCLE
5
181
100
AcDbEntity
8
0
100
AcDbCircle
10
271.75108767783843
20
-124.35814286941161
30
0
40
1.5000000000000049
210
0
220
0
230
1
0
CIRCLE
5
182
100
AcDbEntity
8
0
100
AcDbCircle
10
218.9004764813381
20
-237.58156590679363
30
0
40
1.5000000000000002
210
0
220
0
230
1
0
CIRCLE
5
183
100
AcDbEntity
8
0
100
AcDbCircle
10
154.23637977401694
20
-93.652601606011871
30
0
40
1.4999999999999949
210
0
220
0
230
1
0
CIRCLE
5
184
100
AcDbEntity
8
0
100
AcDbCircle
10
225.05786533277941
20
-95.961622323637869
30
0
40
1.5000000000000002
210
0
220
0
230
1
0
CIRCLE
5
185
100
AcDbEntity
8
0
100
AcDbCircle
10
144.23637977401694
20
-93.652601555180183
30
0
40
1.5000000000000033
210
0
220
0
230
1
0
CIRCLE
5
186
100
AcDbEntity
8
0
100
AcDbCircle
10
188.35904189149301
20
-59.119930944571678
30
0
40
1.4999999999999956
210
0
220
0
230
1
0
CIRCLE
5
187
100
AcDbEntity
8
0
100
AcDbCircle
10
187.08699091968555
20
9.5708215330340707
30
0
40
1.4999999999999956
210
0
220
0
230
1
0
CIRCLE
5
188
100
AcDbEntity
8
0
100
AcDbCircle
10
136.80693995076814
20
-166.58179266073003
30
0
40
1.5000000000000033
210
0
220
0
230
1
0
CIRCLE
5
189
100
AcDbEntity
8
0
100
AcDbCircle
10
187.08699097051732
20
19.570821533034035
30
0
40
1.5000000000000049
210
0
220
0
230
1
0
CIRCLE
5
190
100
AcDbEntity
8
0
100
AcDbCircle
10
307.70737720147969
20
17.2618006629075
30
0
40
1.5000000000000049
210
0
220
0
230
1
0
CIRCLE
5
191
100
AcDbEntity
8
0
100
AcDbCircle
10
-96.199970726192987
20
-93.837764405055154
30
0
40
1.5000000000000024
210
0
220
0
230
1
0
CIRCLE
5
192
100
AcDbEntity
8
0
100
AcDbCircle
10
180.92960211907607
20
-122.04912205012157
30
0
40
1.5000000000000049
210
0
220
0
230
1
0
CIRCLE
5
193
100
AcDbEntity
8
0
100
AcDbCircle
10
210.72850279127618
20
-122.04912210095806
30
0
40
1.5000000000000049
210
0
220
0
230
1
0
CIRCLE
5
194
100
AcDbEntity
8
0
100
AcDbCircle
10
-37.458078350474366
20
-164.19871369036102
30
-8.8817841970012492e-15
40
10.999999999999988
210
0
220
0
230
1
0
CIRCLE
5
195
100
AcDbEntity
8
0
100
AcDbCircle
10
295.4084765373276
20
17.2618006629075
30
0
40
1.5000000000000049
210
0
220
0
230
1
0
CIRCLE
5
196
100
AcDbEntity
8
0
100
AcDbCircle
10
134.23637977401691
20
-93.652601504348283
30
0
40
1.5000000000000002
210
0
220
0
230
1
0
CIRCLE
5
197
100
AcDbEntity
8
0
100
AcDbCircle
10
296.68052750913506
20
-51.428951814698046
30
0
40
1.5000000000000049
210
0
220
0
230
1
0
CIRCLE
5
198
100
AcDbEntity
8
0
100
AcDbCircle
10
245.05786533277941
20
-95.961622425301556
30
0
40
1.4999999999999949
210
0
220
0
230
1
0
CIRCLE
5
199
100
AcDbEntity
8
0
100
AcDbCircle
10
148.0789909225756
20
-235.27254518916754
30
0
40
1.4999999999999949
210
0
220
0
230
1
0
CIRCLE
5
200
100
AcDbEntity
8
0
100
AcDbCircle
10
271.75108762700654
20
-134.35814286941155
30
0
40
1.4999999999999956
210
0
220
0
230
1
0
CIRCLE
5
201
100
AcDbEntity
8
0
100
AcDbCircle
10
-98.608078350474315
20
-196.4987136903608
30
0
40
1.5000000000000024
210
0
220
0
230
1
0
CIRCLE
5
202
100
AcDbEntity
8
0
100
AcDbCircle
10
-47.357573287086019
20
-154.29921875374936
30
0
40
1.5000000000000024
210
0
220
0
230
1
0
CIRCLE
5
203
100
AcDbEntity
8
0
100
AcDbCircle
10
277.90847652927965
20
17.261800713743991
30
0
40
1.5000000000000049
210
0
220
0
230
1
0
ENDSEC
0
SECTION
2
OBJECTS
0
DICTIONARY
5
C
100
AcDbDictionary
3
ACAD_GROUP
350
D
3
ACAD_MLINESTYLE
350
17
0
DICTIONARY
5
D
100
AcDbDictionary
0
DICTIONARY
5
1A
330
C
100
AcDbDictionary
0
DICTIONARY
5
17
100
AcDbDictionary
0
ENDSEC
0
EOF
