0
SECTION
2
HEADER
9
$INSUNITS
70
4
9
$ACADVER
1
AC1014
9
$HANDSEED
5
FFFF
0
ENDSEC
0
SECTION
2
TABLES
0
TABLE
2
VPORT
5
8
100
AcDbSymbolTable
0
ENDTAB
0
TABLE
2
LTYPE
5
5
100
AcDbSymbolTable
0
LTYPE
5
14
100
AcDbSymbolTableRecord
100
AcDbLinetypeTableRecord
2
BYBLOCK
70
0
0
LTYPE
5
15
100
AcDbSymbolTableRecord
100
AcDbLinetypeTableRecord
2
BYLAYER
70
0
0
ENDTAB
0
TABLE
2
LAYER
5
2
100
AcDbSymbolTable
70
2
0
LAYER
5
50
100
AcDbSymbolTableRecord
100
AcDbLayerTableRecord
2
0
70
0
6
CONTINUOUS
0
ENDTAB
0
TABLE
2
STYLE
5
3
100
AcDbSymbolTable
70
1
0
STYLE
5
11
100
AcDbSymbolTableRecord
100
AcDbTextStyleTableRecord
2
STANDARD
70
0
0
ENDTAB
0
TABLE
2
VIEW
5
6
100
AcDbSymbolTable
70
0
0
ENDTAB
0
TABLE
2
UCS
5
7
100
AcDbSymbolTable
70
0
0
ENDTAB
0
TABLE
2
APPID
5
9
100
AcDbSymbolTable
70
2
0
APPID
5
12
100
AcDbSymbolTableRecord
100
AcDbRegAppTableRecord
2
ACAD
70
0
0
ENDTAB
0
TABLE
2
DIMSTYLE
5
A
100
AcDbSymbolTable
70
1
0
ENDTAB
0
TABLE
2
BLOCK_RECORD
5
1
100
AcDbSymbolTable
70
1
0
BLOCK_RECORD
5
1F
100
AcDbSymbolTableRecord
100
AcDbBlockTableRecord
2
*MODEL_SPACE
0
BLOCK_RECORD
5
1B
100
AcDbSymbolTableRecord
100
AcDbBlockTableRecord
2
*PAPER_SPACE
0
ENDTAB
0
ENDSEC
0
SECTION
2
BLOCKS
0
BLOCK
5
20
100
AcDbEntity
100
AcDbBlockBegin
2
*MODEL_SPACE
0
ENDBLK
5
21
100
AcDbEntity
100
AcDbBlockEnd
0
BLOCK
5
1C
100
AcDbEntity
100
AcDbBlockBegin
2
*PAPER_SPACE
0
ENDBLK
5
1D
100
AcDbEntity
100
AcDbBlockEnd
0
ENDSEC
0
SECTION
2
ENTITIES
0
CIRCLE
5
100
100
AcDbEntity
8
0
100
AcDbCircle
10
92.003841271639502
20
130.24568890579286
30
5.5511151231257827e-16
40
1.4999999999999853
210
0
220
0
230
1
0
CIRCLE
5
101
100
AcDbEntity
8
0
100
AcDbCircle
10
151.31864753199585
20
103.54097339958805
30
0
40
1.4999999999999853
210
0
220
0
230
1
0
CIRCLE
5
102
100
AcDbEntity
8
0
100
AcDbCircle
10
-21.48785354724421
20
30.141954916626315
30
0
40
1.4999999999999991
210
0
220
0
230
1
0
LWPOLYLINE
5
103
100
AcDbEntity
8
0
100
AcDbPolyline
90
6
70
1
43
0.0
10
-37.987853494985437
20
6.6419549166263714
10
-4.9878534949855258
20
6.6419549166263714
10
-4.9878534949855258
20
24.976478695782411
10
-14.653329715829422
20
34.641954916626325
10
-28.322377274141552
20
34.641954916626304
10
-37.98785349498543
20
24.976478695782411
0
CIRCLE
5
104
100
AcDbEntity
8
0
100
AcDbCircle
10
-71.487853560120953
20
60.641955244451751
30
0
40
4
210
0
220
0
230
1
0
CIRCLE
5
105
100
AcDbEntity
8
0
100
AcDbCircle
10
-21.487853560120978
20
20.641955244451765
30
0
40
4
210
0
220
0
230
1
0
LWPOLYLINE
5
106
100
AcDbEntity
8
0
100
AcDbPolyline
90
6
70
1
43
0.0
10
-78.322377274141502
20
34.64195491662629
10
-87.987853494985373
20
24.976478695782394
10
-87.98785349498543
20
6.6419549166263536
10
-54.987853494985501
20
6.6419549166263536
10
-54.987853494985508
20
24.976478695782394
10
-64.6533297158294
20
34.641954916626304
0
CIRCLE
5
107
100
AcDbEntity
8
0
100
AcDbCircle
10
-28.987853494985451
20
11.641954916626373
30
0
40
1.4999999999999978
210
0
220
0
230
1
0
CIRCLE
5
108
100
AcDbEntity
8
0
100
AcDbCircle
10
124.31864753199569
20
16.040973399588296
30
0
40
3.9999999999999858
210
0
220
0
230
1
0
CIRCLE
5
109
100
AcDbEntity
8
0
100
AcDbCircle
10
151.31864753199582
20
78.969905587722621
30
5.5511151231257827e-16
40
1.5000000000000213
210
0
220
0
230
1
0
CIRCLE
5
110
100
AcDbEntity
8
0
100
AcDbCircle
10
124.31864753199569
20
33.112041211453729
30
0
40
1.4999999999999853
210
0
220
0
230
1
0
CIRCLE
5
111
100
AcDbEntity
8
0
100
AcDbCircle
10
44.503841271639679
20
126.71015499986029
30
0
40
1.4999999999999853
210
0
220
0
230
1
0
CIRCLE
5
112
100
AcDbEntity
8
0
100
AcDbCircle
10
-13.987853494985494
20
11.641954916626373
30
0
40
1.4999999999999989
210
0
220
0
230
1
0
LWPOLYLINE
5
113
100
AcDbEntity
8
0
100
AcDbPolyline
90
6
70
1
43
0.0
10
-78.322377274141502
20
74.641954916626304
10
-87.987853494985373
20
64.97647869578239
10
-87.98785349498543
20
46.641954916626347
10
-54.987853494985501
20
46.641954916626347
10
-54.987853494985508
20
64.97647869578239
10
-64.6533297158294
20
74.641954916626304
0
LINE
5
114
100
AcDbEntity
8
0
100
AcDbLine
10
-14.653329715829422
20
34.641954916626325
30
0
11
-4.9878534949855258
21
24.976478695782411
31
0
0
CIRCLE
5
115
100
AcDbEntity
8
0
100
AcDbCircle
10
-78.987853494985416
20
11.641954916626355
30
0
40
1.4999999999999978
210
0
220
0
230
1
0
CIRCLE
5
116
100
AcDbEntity
8
0
100
AcDbCircle
10
44.503841271639722
20
153.71015499986024
30
0
40
1.4999999999999853
210
0
220
0
230
1
0
CIRCLE
5
117
100
AcDbEntity
8
0
100
AcDbCircle
10
124.31864753199578
20
78.969905587722621
30
5.5511151231257827e-16
40
1.5000000000000213
210
0
220
0
230
1
0
CIRCLE
5
118
100
AcDbEntity
8
0
100
AcDbCircle
10
-28.987853494985451
20
11.641954916626373
30
0
40
1.4999999999999978
210
0
220
0
230
1
0
CIRCLE
5
119
100
AcDbEntity
8
0
100
AcDbCircle
10
-71.487853547244171
20
30.141954916626297
30
0
40
1.4999999999999991
210
0
220
0
230
1
0
CIRCLE
5
120
100
AcDbEntity
8
0
100
AcDbCircle
10
-21.487853560120978
20
20.641955244451765
30
0
40
4
210
0
220
0
230
1
0
CIRCLE
5
121
100
AcDbEntity
8
0
100
AcDbCircle
10
92.003841271639459
20
150.17462109392741
30
0
40
1.5000000000000213
210
0
220
0
230
1
0
CIRCLE
5
122
100
AcDbEntity
8
0
100
AcDbCircle
10
-21.48785354724421
20
30.141954916626315
30
0
40
1.4999999999999991
210
0
220
0
230
1
0
CIRCLE
5
123
100
AcDbEntity
8
0
100
AcDbCircle
10
69.074909083505077
20
153.71015499986012
30
5.5511151231257827e-16
40
1.5000000000000213
210
0
220
0
230
1
0
CIRCLE
5
124
100
AcDbEntity
8
0
100
AcDbCircle
10
151.31864753199574
20
16.040973399588296
30
0
40
3.9999999999999858
210
0
220
0
230
1
0
CIRCLE
5
125
100
AcDbEntity
8
0
100
AcDbCircle
10
-13.987853494985494
20
11.641954916626373
30
0
40
1.4999999999999989
210
0
220
0
230
1
0
CIRCLE
5
126
100
AcDbEntity
8
0
100
AcDbCircle
10
52.003841271639679
20
153.71015499986024
30
5.5511151231257827e-16
40
4.0000000000000142
210
0
220
0
230
1
0
CIRCLE
5
127
100
AcDbEntity
8
0
100
AcDbCircle
10
-71.487853560120953
20
20.641955244451754
30
0
40
4
210
0
220
0
230
1
0
LINE
5
128
100
AcDbEntity
8
0
100
AcDbLine
10
-28.322377274141552
20
34.641954916626304
30
0
11
-14.653329715829422
21
34.641954916626325
31
0
0
LINE
5
129
100
AcDbEntity
8
0
100
AcDbLine
10
-4.9878534949855258
20
24.976478695782411
30
0
11
-4.9878534949855258
21
6.6419549166263714
31
0
0
CIRCLE
5
130
100
AcDbEntity
8
0
100
AcDbCircle
10
-63.987853494985458
20
11.641954916626355
30
0
40
1.4999999999999989
210
0
220
0
230
1
0
CIRCLE
5
131
100
AcDbEntity
8
0
100
AcDbCircle
10
124.31864753199564
20
8.540973399588303
30
0
40
1.4999999999999853
210
0
220
0
230
1
0
CIRCLE
5
132
100
AcDbEntity
8
0
100
AcDbCircle
10
139.50384127163929
20
153.71015499986001
30
0
40
1.4999999999999853
210
0
220
0
230
1
0
CIRCLE
5
133
100
AcDbEntity
8
0
100
AcDbCircle
10
132.00384127163929
20
126.71015499986014
30
0
40
3.9999999999999858
210
0
220
0
230
1
0
CIRCLE
5
134
100
AcDbEntity
8
0
100
AcDbCircle
10
139.50384127163929
20
126.71015499986009
30
0
40
1.4999999999999853
210
0
220
0
230
1
0
LINE
5
135
100
AcDbEntity
8
0
100
AcDbLine
10
-37.987853494985437
20
6.6419549166263714
30
0
11
-37.98785349498543
21
24.976478695782411
31
0
0
CIRCLE
5
136
100
AcDbEntity
8
0
100
AcDbCircle
10
132.00384127163932
20
153.71015499986004
30
0
40
3.9999999999999858
210
0
220
0
230
1
0
LINE
5
137
100
AcDbEntity
8
0
100
AcDbLine
10
-4.9878534949855258
20
6.6419549166263714
30
0
11
-37.987853494985437
21
6.6419549166263714
31
0
0
LINE
5
138
100
AcDbEntity
8
0
100
AcDbLine
10
-37.98785349498543
20
24.976478695782411
30
0
11
-28.322377274141552
21
34.641954916626304
31
0
0
CIRCLE
5
139
100
AcDbEntity
8
0
100
AcDbCircle
10
151.31864753199574
20
33.112041211453729
30
0
40
1.4999999999999853
210
0
220
0
230
1
0
LWPOLYLINE
5
140
100
AcDbEntity
8
0
100
AcDbPolyline
90
16
70
1
43
0.0
10
28.318647531995612
20
20.183109023319208
10
25.389715343861113
20
23.112041211453747
10
25.389715343861212
20
88.969905587722593
10
28.318647531995769
20
91.898837775857118
10
28.318647531995769
20
100.18310902331903
10
22.460783155726762
20
106.040973399588
10
14.176511908264857
20
106.04097339958805
10
8.318647531995838
20
100.18310902331905
10
8.318647531995838
20
91.898837775857146
10
11.24757972013035
20
88.969905587722664
10
11.24757972013021
20
23.112041211453761
10
8.3186475319956799
20
20.18310902331924
10
8.3186475319956976
20
11.898837775857348
10
14.176511908264677
20
6.0409733995883252
10
22.46078315572662
20
6.0409733995883075
10
28.318647531995612
20
11.898837775857325
0
LINE
5
141
100
AcDbEntity
8
0
100
AcDbLine
10
-87.98785349498543
20
6.6419549166263536
30
0
11
-87.987853494985373
21
24.976478695782394
31
0
0
CIRCLE
5
142
100
AcDbEntity
8
0
100
AcDbCircle
10
-71.487853560120953
20
20.641955244451754
30
0
40
4
210
0
220
0
230
1
0
CIRCLE
5
143
100
AcDbEntity
8
0
100
AcDbCircle
10
-71.487853547244171
20
30.141954916626297
30
0
40
1.4999999999999991
210
0
220
0
230
1
0
LWPOLYLINE
5
144
100
AcDbEntity
8
0
100
AcDbPolyline
90
16
70
1
43
0.0
10
35.318647531995843
20
100.18310902331905
10
35.318647531995843
20
91.898837775857146
10
38.247579720130354
20
88.969905587722664
10
38.247579720130211
20
23.112041211453761
10
35.31864753199568
20
20.18310902331924
10
35.318647531995701
20
11.898837775857348
10
41.176511908264679
20
6.0409733995883252
10
49.460783155726624
20
6.0409733995883075
10
55.31864753199563
20
11.898837775857325
10
55.31864753199563
20
20.183109023319208
10
52.389715343861113
20
23.112041211453747
10
52.389715343861226
20
88.969905587722593
10
55.318647531995779
20
91.898837775857118
10
55.318647531995779
20
100.18310902331903
10
49.460783155726773
20
106.040973399588
10
41.17651190826485
20
106.04097339958805
0
LWPOLYLINE
5
145
100
AcDbEntity
8
0
100
AcDbPolyline
90
16
70
1
43
0.0
10
62.318647531995843
20
91.898837775857146
10
65.247579720130346
20
88.969905587722664
10
65.247579720130219
20
23.112041211453761
10
62.318647531995666
20
20.18310902331924
10
62.318647531995708
20
11.898837775857348
10
68.176511908264672
20
6.0409733995883252
10
76.460783155726631
20
6.0409733995883075
10
82.318647531995623
20
11.898837775857325
10
82.318647531995623
20
20.183109023319208
10
79.389715343861099
20
23.112041211453747
10
79.389715343861212
20
88.969905587722593
10
82.318647531995737
20
91.898837775857118
10
82.318647531995737
20
100.18310902331903
10
76.460783155726773
20
106.040973399588
10
68.176511908264843
20
106.04097339958805
10
62.318647531995843
20
100.18310902331905
0
CIRCLE
5
146
100
AcDbEntity
8
0
100
AcDbCircle
10
99.31864753199585
20
96.040973399588069
30
5.5511151231257827e-16
40
4.0000000000000142
210
0
220
0
230
1
0
CIRCLE
5
147
100
AcDbEntity
8
0
100
AcDbCircle
10
75.854181437928474
20
56.040973399588189
30
5.5511151231257827e-16
40
1.4999999999999853
210
0
220
0
230
1
0
CIRCLE
5
148
100
AcDbEntity
8
0
100
AcDbCircle
10
99.318647531995623
20
8.540973399588303
30
0
40
1.4999999999999853
210
0
220
0
230
1
0
CIRCLE
5
149
100
AcDbEntity
8
0
100
AcDbCircle
10
99.318647531995637
20
16.040973399588296
30
0
40
3.9999999999999858
210
0
220
0
230
1
0
CIRCLE
5
150
100
AcDbEntity
8
0
100
AcDbCircle
10
68.783113626062999
20
56.040973399588204
30
0
40
1.5000000000000213
210
0
220
0
230
1
0
LINE
5
151
100
AcDbEntity
8
0
100
AcDbLine
10
-64.6533297158294
20
34.641954916626304
30
0
11
-54.987853494985508
21
24.976478695782394
31
0
0
CIRCLE
5
152
100
AcDbEntity
8
0
100
AcDbCircle
10
18.318647531995662
20
33.112041211453729
30
0
40
1.4999999999999853
210
0
220
0
230
1
0
CIRCLE
5
153
100
AcDbEntity
8
0
100
AcDbCircle
10
18.31864753199584
20
96.040973399588069
30
5.5511151231257827e-16
40
4.0000000000000142
210
0
220
0
230
1
0
LINE
5
154
100
AcDbEntity
8
0
100
AcDbLine
10
-54.987853494985501
20
6.6419549166263536
30
0
11
-87.98785349498543
21
6.6419549166263536
31
0
0
CIRCLE
5
155
100
AcDbEntity
8
0
100
AcDbCircle
10
18.31864753199584
20
103.54097339958805
30
0
40
1.4999999999999853
210
0
220
0
230
1
0
LINE
5
156
100
AcDbEntity
8
0
100
AcDbLine
10
-54.987853494985508
20
24.976478695782394
30
0
11
-54.987853494985501
21
6.6419549166263536
31
0
0
LINE
5
157
100
AcDbEntity
8
0
100
AcDbLine
10
-87.987853494985373
20
24.976478695782394
30
0
11
-78.322377274141502
21
34.64195491662629
31
0
0
CIRCLE
5
158
100
AcDbEntity
8
0
100
AcDbCircle
10
-63.987853494985458
20
11.641954916626355
30
0
40
1.4999999999999989
210
0
220
0
230
1
0
CIRCLE
5
159
100
AcDbEntity
8
0
100
AcDbCircle
10
18.318647531995627
20
8.540973399588303
30
0
40
1.4999999999999853
210
0
220
0
230
1
0
CIRCLE
5
160
100
AcDbEntity
8
0
100
AcDbCircle
10
-78.987853494985416
20
11.641954916626355
30
0
40
1.4999999999999978
210
0
220
0
230
1
0
CIRCLE
5
161
100
AcDbEntity
8
0
100
AcDbCircle
10
21.854181437928467
20
56.040973399588189
30
5.5511151231257827e-16
40
1.4999999999999853
210
0
220
0
230
1
0
LINE
5
162
100
AcDbEntity
8
0
100
AcDbLine
10
-78.322377274141502
20
34.64195491662629
30
0
11
-64.6533297158294
21
34.641954916626304
31
0
0
CIRCLE
5
163
100
AcDbEntity
8
0
100
AcDbCircle
10
45.31864753199563
20
8.540973399588303
30
0
40
1.4999999999999853
210
0
220
0
230
1
0
LWPOLYLINE
5
164
100
AcDbEntity
8
0
100
AcDbPolyline
90
16
70
1
43
0.0
10
144.24757972013037
20
88.969905587722664
10
144.24757972013026
20
23.112041211453761
10
141.31864753199574
20
20.18310902331924
10
141.31864753199577
20
11.898837775857348
10
147.1765119082647
20
6.0409733995883252
10
155.46078315572663
20
6.0409733995883075
10
161.31864753199562
20
11.898837775857325
10
161.31864753199562
20
20.183109023319208
10
158.38971534386113
20
23.112041211453747
10
158.38971534386127
20
88.969905587722593
10
161.31864753199582
20
91.898837775857118
10
161.31864753199582
20
100.18310902331903
10
155.4607831557268
20
106.040973399588
10
147.17651190826487
20
106.04097339958805
10
141.31864753199585
20
100.18310902331905
10
141.31864753199585
20
91.898837775857146
0
LWPOLYLINE
5
165
100
AcDbEntity
8
0
100
AcDbPolyline
90
16
70
1
43
0.0
10
120.1765119082647
20
6.0409733995883252
10
128.46078315572663
20
6.0409733995883075
10
134.31864753199562
20
11.898837775857325
10
134.31864753199562
20
20.183109023319208
10
131.38971534386113
20
23.112041211453747
10
131.38971534386121
20
88.969905587722593
10
134.31864753199577
20
91.898837775857118
10
134.31864753199577
20
100.18310902331903
10
128.46078315572674
20
106.040973399588
10
120.17651190826487
20
106.04097339958805
10
114.31864753199585
20
100.18310902331905
10
114.31864753199585
20
91.898837775857146
10
117.24757972013037
20
88.969905587722664
10
117.24757972013023
20
23.112041211453761
10
114.31864753199569
20
20.18310902331924
10
114.31864753199574
20
11.898837775857348
0
CIRCLE
5
166
100
AcDbEntity
8
0
100
AcDbCircle
10
147.78311362606303
20
56.040973399588204
30
0
40
1.5000000000000213
210
0
220
0
230
1
0
CIRCLE
5
167
100
AcDbEntity
8
0
100
AcDbCircle
10
154.8541814379285
20
56.040973399588189
30
5.5511151231257827e-16
40
1.4999999999999853
210
0
220
0
230
1
0
LWPOLYLINE
5
168
100
AcDbEntity
8
0
100
AcDbPolyline
90
16
70
1
43
0.0
10
42.003841271639679
20
122.56801937612931
10
47.86170564790865
20
116.71015499986032
10
56.145976895370531
20
116.71015499986032
10
59.074909083505062
20
119.6390871879948
10
124.93277345977384
20
119.63908718799465
10
127.86170564790837
20
116.71015499986014
10
136.14597689537024
20
116.71015499986015
10
142.00384127163929
20
122.56801937612913
10
142.00384127163929
20
130.85229062359105
10
136.14597689537027
20
136.71015499986001
10
127.86170564790837
20
136.71015499986001
10
124.9327734597739
20
133.78122281172554
10
59.074909083505062
20
133.78122281172563
10
56.145976895370602
20
136.71015499986021
10
47.861705647908714
20
136.71015499986021
10
42.003841271639708
20
130.85229062359122
0
CIRCLE
5
169
100
AcDbEntity
8
0
100
AcDbCircle
10
151.31864753199562
20
8.540973399588303
30
0
40
1.4999999999999853
210
0
220
0
230
1
0
CIRCLE
5
170
100
AcDbEntity
8
0
100
AcDbCircle
10
114.9327734597739
20
153.71015499986004
30
0
40
1.4999999999999853
210
0
220
0
230
1
0
CIRCLE
5
171
100
AcDbEntity
8
0
100
AcDbCircle
10
120.78311362606306
20
56.040973399588204
30
0
40
1.5000000000000213
210
0
220
0
230
1
0
CIRCLE
5
172
100
AcDbEntity
8
0
100
AcDbCircle
10
124.31864753199585
20
96.040973399588069
30
5.5511151231257827e-16
40
4.0000000000000142
210
0
220
0
230
1
0
CIRCLE
5
173
100
AcDbEntity
8
0
100
AcDbCircle
10
151.31864753199585
20
96.040973399588069
30
5.5511151231257827e-16
40
4.0000000000000142
210
0
220
0
230
1
0
CIRCLE
5
174
100
AcDbEntity
8
0
100
AcDbCircle
10
124.31864753199585
20
103.54097339958805
30
0
40
1.4999999999999853
210
0
220
0
230
1
0
CIRCLE
5
175
100
AcDbEntity
8
0
100
AcDbCircle
10
92.003841271639459
20
123.17462109392744
30
0
40
1.5000000000000213
210
0
220
0
230
1
0
CIRCLE
5
176
100
AcDbEntity
8
0
100
AcDbCircle
10
92.003841271639502
20
157.24568890579286
30
5.5511151231257827e-16
40
1.4999999999999853
210
0
220
0
230
1
0
CIRCLE
5
177
100
AcDbEntity
8
0
100
AcDbCircle
10
114.9327734597739
20
126.71015499986014
30
0
40
1.4999999999999853
210
0
220
0
230
1
0
CIRCLE
5
178
100
AcDbEntity
8
0
100
AcDbCircle
10
52.003841271639651
20
126.71015499986029
30
5.5511151231257827e-16
40
4.0000000000000142
210
0
220
0
230
1
0
CIRCLE
5
179
100
AcDbEntity
8
0
100
AcDbCircle
10
18.318647531995662
20
16.040973399588296
30
0
40
3.9999999999999858
210
0
220
0
230
1
0
LWPOLYLINE
5
180
100
AcDbEntity
8
0
100
AcDbPolyline
90
16
70
1
43
0.0
10
56.145976895370602
20
163.71015499986015
10
47.861705647908714
20
163.71015499986015
10
42.003841271639722
20
157.85229062359116
10
42.003841271639679
20
149.56801937612926
10
47.86170564790865
20
143.71015499986024
10
56.145976895370531
20
143.71015499986024
10
59.074909083505062
20
146.63908718799476
10
124.93277345977384
20
146.63908718799459
10
127.86170564790837
20
143.71015499986009
10
136.14597689537024
20
143.71015499986009
10
142.00384127163929
20
149.56801937612906
10
142.00384127163929
20
157.85229062359102
10
136.14597689537027
20
163.71015499986001
10
127.86170564790842
20
163.71015499986001
10
124.9327734597739
20
160.78122281172554
10
59.074909083505105
20
160.78122281172566
0
CIRCLE
5
181
100
AcDbEntity
8
0
100
AcDbCircle
10
72.318647531995765
20
78.969905587722621
30
5.5511151231257827e-16
40
1.5000000000000213
210
0
220
0
230
1
0
CIRCLE
5
182
100
AcDbEntity
8
0
100
AcDbCircle
10
72.318647531995666
20
16.040973399588296
30
0
40
3.9999999999999858
210
0
220
0
230
1
0
CIRCLE
5
183
100
AcDbEntity
8
0
100
AcDbCircle
10
69.074909083505077
20
126.71015499986021
30
5.5511151231257827e-16
40
1.5000000000000213
210
0
220
0
230
1
0
CIRCLE
5
184
100
AcDbEntity
8
0
100
AcDbCircle
10
95.783113626063027
20
56.040973399588204
30
0
40
1.5000000000000213
210
0
220
0
230
1
0
CIRCLE
5
185
100
AcDbEntity
8
0
100
AcDbCircle
10
99.318647531995779
20
78.969905587722621
30
5.5511151231257827e-16
40
1.5000000000000213
210
0
220
0
230
1
0
CIRCLE
5
186
100
AcDbEntity
8
0
100
AcDbCircle
10
72.318647531995666
20
33.112041211453729
30
0
40
1.4999999999999853
210
0
220
0
230
1
0
CIRCLE
5
187
100
AcDbEntity
8
0
100
AcDbCircle
10
127.8541814379285
20
56.040973399588189
30
5.5511151231257827e-16
40
1.4999999999999853
210
0
220
0
230
1
0
CIRCLE
5
188
100
AcDbEntity
8
0
100
AcDbCircle
10
72.318647531995808
20
96.040973399588069
30
5.5511151231257827e-16
40
4.0000000000000142
210
0
220
0
230
1
0
CIRCLE
5
189
100
AcDbEntity
8
0
100
AcDbCircle
10
99.318647531995637
20
33.112041211453729
30
0
40
1.4999999999999853
210
0
220
0
230
1
0
CIRCLE
5
190
100
AcDbEntity
8
0
100
AcDbCircle
10
72.318647531995808
20
103.54097339958805
30
0
40
1.4999999999999853
210
0
220
0
230
1
0
CIRCLE
5
191
100
AcDbEntity
8
0
100
AcDbCircle
10
72.318647531995623
20
8.540973399588303
30
0
40
1.4999999999999853
210
0
220
0
230
1
0
CIRCLE
5
192
100
AcDbEntity
8
0
100
AcDbCircle
10
45.318647531995666
20
16.040973399588296
30
0
40
3.9999999999999858
210
0
220
0
230
1
0
LWPOLYLINE
5
193
100
AcDbEntity
8
0
100
AcDbPolyline
90
16
70
1
43
0.0
10
89.318647531995822
20
91.898837775857146
10
92.247579720130361
20
88.969905587722664
10
92.247579720130204
20
23.112041211453761
10
89.318647531995694
20
20.18310902331924
10
89.318647531995694
20
11.898837775857348
10
95.1765119082647
20
6.0409733995883252
10
103.46078315572662
20
6.0409733995883075
10
109.31864753199562
20
11.898837775857325
10
109.31864753199562
20
20.183109023319208
10
106.38971534386114
20
23.112041211453747
10
106.38971534386124
20
88.969905587722593
10
109.31864753199578
20
91.898837775857118
10
109.31864753199578
20
100.18310902331903
10
103.46078315572676
20
106.040973399588
10
95.176511908264843
20
106.04097339958805
10
89.318647531995822
20
100.18310902331905
0
CIRCLE
5
194
100
AcDbEntity
8
0
100
AcDbCircle
10
45.318647531995843
20
103.54097339958805
30
0
40
1.4999999999999853
210
0
220
0
230
1
0
CIRCLE
5
195
100
AcDbEntity
8
0
100
AcDbCircle
10
45.318647531995843
20
96.040973399588069
30
5.5511151231257827e-16
40
4.0000000000000142
210
0
220
0
230
1
0
CIRCLE
5
196
100
AcDbEntity
8
0
100
AcDbCircle
10
99.31864753199585
20
103.54097339958805
30
0
40
1.4999999999999853
210
0
220
0
230
1
0
CIRCLE
5
197
100
AcDbEntity
8
0
100
AcDbCircle
10
102.85418143792846
20
56.040973399588189
30
5.5511151231257827e-16
40
1.4999999999999853
210
0
220
0
230
1
0
CIRCLE
5
198
100
AcDbEntity
8
0
100
AcDbCircle
10
48.854181437928474
20
56.040973399588189
30
5.5511151231257827e-16
40
1.4999999999999853
210
0
220
0
230
1
0
CIRCLE
5
199
100
AcDbEntity
8
0
100
AcDbCircle
10
-51.638986460916371
20
102.28725997653713
30
0
40
1.4999999999999991
210
0
220
0
230
1
0
CIRCLE
5
200
100
AcDbEntity
8
0
100
AcDbCircle
10
-73.138986460916371
20
109.78726002879586
30
0
40
1.4999999999999989
210
0
220
0
230
1
0
CIRCLE
5
201
100
AcDbEntity
8
0
100
AcDbCircle
10
14.783113626063011
20
56.040973399588204
30
0
40
1.5000000000000213
210
0
220
0
230
1
0
CIRCLE
5
202
100
AcDbEntity
8
0
100
AcDbCircle
10
-91.638986460916229
20
102.28725997653717
30
0
40
1.4999999999999991
210
0
220
0
230
1
0
LWPOLYLINE
5
203
100
AcDbEntity
8
0
100
AcDbPolyline
90
6
70
1
43
0.0
10
-56.138986460916371
20
109.12178380795194
10
-56.138986460916371
20
95.452736249639841
10
-46.4735102400725
20
85.78726002879597
10
-28.138986460916495
20
85.787260028795941
10
-28.138986460916481
20
118.78726002879576
10
-46.473510240072493
20
118.78726002879576
0
CIRCLE
5
204
100
AcDbEntity
8
0
100
AcDbCircle
10
-107.97526815163992
20
11.248702135636188
30
0
40
1.4999999999999989
210
0
220
0
230
1
0
CIRCLE
5
205
100
AcDbEntity
8
0
100
AcDbCircle
10
18.318647531995765
20
78.969905587722621
30
5.5511151231257827e-16
40
1.5000000000000213
210
0
220
0
230
1
0
CIRCLE
5
206
100
AcDbEntity
8
0
100
AcDbCircle
10
-42.138986788741867
20
102.28725996366043
30
0
40
4
210
0
220
0
230
1
0
LWPOLYLINE
5
207
100
AcDbEntity
8
0
100
AcDbPolyline
90
6
70
1
43
0.0
10
-37.98785349498543
20
64.976478695782419
10
-37.987853494985437
20
46.641954916626389
10
-4.9878534949855258
20
46.641954916626389
10
-4.9878534949855258
20
64.976478695782419
10
-14.653329715829422
20
74.641954916626347
10
-28.322377274141552
20
74.641954916626304
0
CIRCLE
5
208
100
AcDbEntity
8
0
100
AcDbCircle
10
-21.487853560120978
20
60.641955244451779
30
0
40
4
210
0
220
0
230
1
0
CIRCLE
5
209
100
AcDbEntity
8
0
100
AcDbCircle
10
-28.987853494985451
20
51.641954916626389
30
0
40
1.4999999999999978
210
0
220
0
230
1
0
CIRCLE
5
210
100
AcDbEntity
8
0
100
AcDbCircle
10
-13.987853494985494
20
51.641954916626389
30
0
40
1.4999999999999989
210
0
220
0
230
1
0
LINE
5
211
100
AcDbEntity
8
0
100
AcDbLine
10
-54.987853494985508
20
64.97647869578239
30
0
11
-54.987853494985501
21
46.641954916626347
31
0
0
LINE
5
212
100
AcDbEntity
8
0
100
AcDbLine
10
-4.9878534949855258
20
64.976478695782419
30
0
11
-4.9878534949855258
21
46.641954916626389
31
0
0
LINE
5
213
100
AcDbEntity
8
0
100
AcDbLine
10
-64.6533297158294
20
74.641954916626304
30
0
11
-54.987853494985508
21
64.97647869578239
31
0
0
CIRCLE
5
214
100
AcDbEntity
8
0
100
AcDbCircle
10
-63.987853494985458
20
51.641954916626354
30
0
40
1.4999999999999989
210
0
220
0
230
1
0
CIRCLE
5
215
100
AcDbEntity
8
0
100
AcDbCircle
10
-78.987853494985416
20
51.641954916626354
30
0
40
1.4999999999999978
210
0
220
0
230
1
0
LINE
5
216
100
AcDbEntity
8
0
100
AcDbLine
10
-37.98785349498543
20
64.976478695782419
30
0
11
-28.322377274141552
21
74.641954916626304
31
0
0
CIRCLE
5
217
100
AcDbEntity
8
0
100
AcDbCircle
10
-28.987853494985451
20
51.641954916626389
30
0
40
1.4999999999999978
210
0
220
0
230
1
0
CIRCLE
5
218
100
AcDbEntity
8
0
100
AcDbCircle
10
-71.487853547244171
20
70.141954916626304
30
0
40
1.4999999999999991
210
0
220
0
230
1
0
CIRCLE
5
219
100
AcDbEntity
8
0
100
AcDbCircle
10
-21.48785354724421
20
70.141954916626318
30
0
40
1.4999999999999991
210
0
220
0
230
1
0
CIRCLE
5
220
100
AcDbEntity
8
0
100
AcDbCircle
10
-21.487853560120978
20
60.641955244451779
30
0
40
4
210
0
220
0
230
1
0
LINE
5
221
100
AcDbEntity
8
0
100
AcDbLine
10
-78.322377274141502
20
74.641954916626304
30
0
11
-64.6533297158294
21
74.641954916626304
31
0
0
LINE
5
222
100
AcDbEntity
8
0
100
AcDbLine
10
-87.987853494985373
20
64.97647869578239
30
0
11
-78.322377274141502
21
74.641954916626304
31
0
0
LINE
5
223
100
AcDbEntity
8
0
100
AcDbLine
10
-54.987853494985501
20
46.641954916626347
30
0
11
-87.98785349498543
21
46.641954916626347
31
0
0
LINE
5
224
100
AcDbEntity
8
0
100
AcDbLine
10
-28.322377274141552
20
74.641954916626304
30
0
11
-14.653329715829422
21
74.641954916626347
31
0
0
LINE
5
225
100
AcDbEntity
8
0
100
AcDbLine
10
-14.653329715829422
20
74.641954916626347
30
0
11
-4.9878534949855258
21
64.976478695782419
31
0
0
CIRCLE
5
226
100
AcDbEntity
8
0
100
AcDbCircle
10
-78.987853494985416
20
51.641954916626354
30
0
40
1.4999999999999978
210
0
220
0
230
1
0
LINE
5
227
100
AcDbEntity
8
0
100
AcDbLine
10
-87.98785349498543
20
46.641954916626347
30
0
11
-87.987853494985373
21
64.97647869578239
31
0
0
CIRCLE
5
228
100
AcDbEntity
8
0
100
AcDbCircle
10
-71.487853547244171
20
70.141954916626304
30
0
40
1.4999999999999991
210
0
220
0
230
1
0
CIRCLE
5
229
100
AcDbEntity
8
0
100
AcDbCircle
10
-71.487853560120953
20
60.641955244451751
30
0
40
4
210
0
220
0
230
1
0
LINE
5
230
100
AcDbEntity
8
0
100
AcDbLine
10
-37.987853494985437
20
46.641954916626389
30
0
11
-37.98785349498543
21
64.976478695782419
31
0
0
LINE
5
231
100
AcDbEntity
8
0
100
AcDbLine
10
-4.9878534949855258
20
46.641954916626389
30
0
11
-37.987853494985437
21
46.641954916626389
31
0
0
CIRCLE
5
232
100
AcDbEntity
8
0
100
AcDbCircle
10
-13.987853494985494
20
51.641954916626389
30
0
40
1.4999999999999989
210
0
220
0
230
1
0
CIRCLE
5
233
100
AcDbEntity
8
0
100
AcDbCircle
10
-42.138986788741867
20
102.28725996366043
30
0
40
4
210
0
220
0
230
1
0
CIRCLE
5
234
100
AcDbEntity
8
0
100
AcDbCircle
10
41.783113626063006
20
56.040973399588204
30
0
40
1.5000000000000213
210
0
220
0
230
1
0
CIRCLE
5
235
100
AcDbEntity
8
0
100
AcDbCircle
10
45.318647531995772
20
78.969905587722621
30
5.5511151231257827e-16
40
1.5000000000000213
210
0
220
0
230
1
0
CIRCLE
5
236
100
AcDbEntity
8
0
100
AcDbCircle
10
45.318647531995666
20
33.112041211453729
30
0
40
1.4999999999999853
210
0
220
0
230
1
0
LWPOLYLINE
5
237
100
AcDbEntity
8
0
100
AcDbPolyline
90
6
70
1
43
0.0
10
-86.473510240072343
20
118.78726002879581
10
-96.138986460916286
20
109.12178380795196
10
-96.138986460916243
20
95.452736249639841
10
-86.473510240072386
20
85.78726002879597
10
-68.138986460916414
20
85.78726002879597
10
-68.138986460916371
20
118.78726002879581
0
CIRCLE
5
238
100
AcDbEntity
8
0
100
AcDbCircle
10
-82.138986788741732
20
102.28725996366045
30
0
40
4
210
0
220
0
230
1
0
CIRCLE
5
239
100
AcDbEntity
8
0
100
AcDbCircle
10
-107.97526815163992
20
51.248702135636151
30
0
40
1.4999999999999989
210
0
220
0
230
1
0
CIRCLE
5
240
100
AcDbEntity
8
0
100
AcDbCircle
10
-33.138986460916477
20
109.78726002879586
30
0
40
1.4999999999999989
210
0
220
0
230
1
0
CIRCLE
5
241
100
AcDbEntity
8
0
100
AcDbCircle
10
-115.47526820389864
20
29.748702135636119
30
0
40
1.4999999999999991
210
0
220
0
230
1
0
CIRCLE
5
242
100
AcDbEntity
8
0
100
AcDbCircle
10
-122.9752681516399
20
51.248702135636151
30
0
40
1.4999999999999978
210
0
220
0
230
1
0
CIRCLE
5
243
100
AcDbEntity
8
0
100
AcDbCircle
10
-73.138986460916371
20
94.787260028795956
30
0
40
1.4999999999999978
210
0
220
0
230
1
0
LINE
5
244
100
AcDbEntity
8
0
100
AcDbLine
10
-56.138986460916371
20
109.12178380795194
30
0
11
-46.473510240072493
21
118.78726002879576
31
0
0
LWPOLYLINE
5
245
100
AcDbEntity
8
0
100
AcDbPolyline
90
6
70
1
43
0.0
10
-131.97526815163985
20
46.248702135636151
10
-98.975268151639995
20
46.248702135636151
10
-98.975268151639966
20
64.58322591479218
10
-108.64074437248385
20
74.24870213563608
10
-122.30979193079597
20
74.248702135636066
10
-131.9752681516398
20
64.58322591479218
0
LWPOLYLINE
5
246
100
AcDbEntity
8
0
100
AcDbPolyline
90
6
70
1
43
0.0
10
-108.64074437248385
20
34.248702135636123
10
-122.30979193079597
20
34.248702135636101
10
-131.97526815163985
20
24.583225914792216
10
-131.97526815163985
20
6.2487021356361971
10
-98.975268151639995
20
6.2487021356361971
10
-98.975268151639995
20
24.583225914792216
0
LINE
5
247
100
AcDbEntity
8
0
100
AcDbLine
10
-28.138986460916495
20
85.787260028795941
30
0
11
-46.4735102400725
21
85.78726002879597
31
0
0
CIRCLE
5
248
100
AcDbEntity
8
0
100
AcDbCircle
10
-107.97526815163992
20
51.248702135636151
30
0
40
1.4999999999999989
210
0
220
0
230
1
0
CIRCLE
5
249
100
AcDbEntity
8
0
100
AcDbCircle
10
-115.47526821677542
20
60.248702463461541
30
0
40
4
210
0
220
0
230
1
0
LINE
5
250
100
AcDbEntity
8
0
100
AcDbLine
10
-98.975268151639995
20
46.248702135636151
30
0
11
-131.97526815163985
21
46.248702135636151
31
0
0
CIRCLE
5
251
100
AcDbEntity
8
0
100
AcDbCircle
10
-122.9752681516399
20
51.248702135636151
30
0
40
1.4999999999999978
210
0
220
0
230
1
0
CIRCLE
5
252
100
AcDbEntity
8
0
100
AcDbCircle
10
-115.47526821677542
20
60.248702463461541
30
0
40
4
210
0
220
0
230
1
0
CIRCLE
5
253
100
AcDbEntity
8
0
100
AcDbCircle
10
-82.138986788741732
20
102.28725996366045
30
0
40
4
210
0
220
0
230
1
0
LINE
5
254
100
AcDbEntity
8
0
100
AcDbLine
10
-108.64074437248385
20
74.24870213563608
30
0
11
-98.975268151639966
21
64.58322591479218
31
0
0
LINE
5
255
100
AcDbEntity
8
0
100
AcDbLine
10
-98.975268151639966
20
64.58322591479218
30
0
11
-98.975268151639995
21
46.248702135636151
31
0
0
CIRCLE
5
256
100
AcDbEntity
8
0
100
AcDbCircle
10
-115.47526820389864
20
69.748702135636066
30
0
40
1.4999999999999991
210
0
220
0
230
1
0
LINE
5
257
100
AcDbEntity
8
0
100
AcDbLine
10
-46.4735102400725
20
85.78726002879597
30
0
11
-56.138986460916371
21
95.452736249639841
31
0
0
LINE
5
258
100
AcDbEntity
8
0
100
AcDbLine
10
-131.9752681516398
20
64.58322591479218
30
0
11
-122.30979193079597
21
74.248702135636066
31
0
0
CIRCLE
5
259
100
AcDbEntity
8
0
100
AcDbCircle
10
-122.9752681516399
20
11.248702135636195
30
0
40
1.4999999999999978
210
0
220
0
230
1
0
LINE
5
260
100
AcDbEntity
8
0
100
AcDbLine
10
-46.473510240072493
20
118.78726002879576
30
0
11
-28.138986460916481
21
118.78726002879576
31
0
0
LINE
5
261
100
AcDbEntity
8
0
100
AcDbLine
10
-96.138986460916286
20
109.12178380795196
30
0
11
-86.473510240072343
21
118.78726002879581
31
0
0
LINE
5
262
100
AcDbEntity
8
0
100
AcDbLine
10
-28.138986460916481
20
118.78726002879576
30
0
11
-28.138986460916495
21
85.787260028795941
31
0
0
CIRCLE
5
263
100
AcDbEntity
8
0
100
AcDbCircle
10
-33.138986460916499
20
94.787260028795941
30
0
40
1.4999999999999978
210
0
220
0
230
1
0
LINE
5
264
100
AcDbEntity
8
0
100
AcDbLine
10
-131.97526815163985
20
46.248702135636151
30
0
11
-131.9752681516398
21
64.58322591479218
31
0
0
LINE
5
265
100
AcDbEntity
8
0
100
AcDbLine
10
-122.30979193079597
20
74.248702135636066
30
0
11
-108.64074437248385
21
74.24870213563608
31
0
0
LINE
5
266
100
AcDbEntity
8
0
100
AcDbLine
10
-86.473510240072343
20
118.78726002879581
30
0
11
-68.138986460916371
21
118.78726002879581
31
0
0
LINE
5
267
100
AcDbEntity
8
0
100
AcDbLine
10
-56.138986460916371
20
95.452736249639841
30
0
11
-56.138986460916371
21
109.12178380795194
31
0
0
CIRCLE
5
268
100
AcDbEntity
8
0
100
AcDbCircle
10
-51.638986460916371
20
102.28725997653713
30
0
40
1.4999999999999991
210
0
220
0
230
1
0
CIRCLE
5
269
100
AcDbEntity
8
0
100
AcDbCircle
10
-33.138986460916499
20
94.787260028795941
30
0
40
1.4999999999999978
210
0
220
0
230
1
0
CIRCLE
5
270
100
AcDbEntity
8
0
100
AcDbCircle
10
-73.138986460916371
20
109.78726002879586
30
0
40
1.4999999999999989
210
0
220
0
230
1
0
CIRCLE
5
271
100
AcDbEntity
8
0
100
AcDbCircle
10
-115.47526821677542
20
20.248702463461576
30
0
40
4
210
0
220
0
230
1
0
CIRCLE
5
272
100
AcDbEntity
8
0
100
AcDbCircle
10
-107.97526815163992
20
11.248702135636188
30
0
40
1.4999999999999989
210
0
220
0
230
1
0
CIRCLE
5
273
100
AcDbEntity
8
0
100
AcDbCircle
10
-115.47526820389864
20
69.748702135636066
30
0
40
1.4999999999999991
210
0
220
0
230
1
0
CIRCLE
5
274
100
AcDbEntity
8
0
100
AcDbCircle
10
-73.138986460916371
20
94.787260028795956
30
0
40
1.4999999999999978
210
0
220
0
230
1
0
CIRCLE
5
275
100
AcDbEntity
8
0
100
AcDbCircle
10
-33.138986460916477
20
109.78726002879586
30
0
40
1.4999999999999989
210
0
220
0
230
1
0
CIRCLE
5
276
100
AcDbEntity
8
0
100
AcDbCircle
10
-91.638986460916229
20
102.28725997653717
30
0
40
1.4999999999999991
210
0
220
0
230
1
0
LINE
5
277
100
AcDbEntity
8
0
100
AcDbLine
10
-96.138986460916243
20
95.452736249639841
30
0
11
-96.138986460916286
21
109.12178380795196
31
0
0
LINE
5
278
100
AcDbEntity
8
0
100
AcDbLine
10
-68.138986460916371
20
118.78726002879581
30
0
11
-68.138986460916414
21
85.78726002879597
31
0
0
CIRCLE
5
279
100
AcDbEntity
8
0
100
AcDbCircle
10
-115.47526820389864
20
29.748702135636119
30
0
40
1.4999999999999991
210
0
220
0
230
1
0
LINE
5
280
100
AcDbEntity
8
0
100
AcDbLine
10
-122.30979193079597
20
34.248702135636101
30
0
11
-108.64074437248385
21
34.248702135636123
31
0
0
LINE
5
281
100
AcDbEntity
8
0
100
AcDbLine
10
-131.97526815163985
20
24.583225914792216
30
0
11
-122.30979193079597
21
34.248702135636101
31
0
0
LINE
5
282
100
AcDbEntity
8
0
100
AcDbLine
10
-131.97526815163985
20
6.2487021356361971
30
0
11
-131.97526815163985
21
24.583225914792216
31
0
0
LINE
5
283
100
AcDbEntity
8
0
100
AcDbLine
10
-68.138986460916414
20
85.78726002879597
30
0
11
-86.473510240072386
21
85.78726002879597
31
0
0
CIRCLE
5
284
100
AcDbEntity
8
0
100
AcDbCircle
10
-122.9752681516399
20
11.248702135636195
30
0
40
1.4999999999999978
210
0
220
0
230
1
0
LINE
5
285
100
AcDbEntity
8
0
100
AcDbLine
10
-98.975268151639995
20
6.2487021356361971
30
0
11
-131.97526815163985
21
6.2487021356361971
31
0
0
CIRCLE
5
286
100
AcDbEntity
8
0
100
AcDbCircle
10
-115.47526821677542
20
20.248702463461576
30
0
40
4
210
0
220
0
230
1
0
LINE
5
287
100
AcDbEntity
8
0
100
AcDbLine
10
-98.975268151639995
20
24.583225914792216
30
0
11
-98.975268151639995
21
6.2487021356361971
31
0
0
CIRCLE
5
288
100
AcDbEntity
8
0
100
AcDbCircle
10
-63.987853494985458
20
51.641954916626354
30
0
40
1.4999999999999989
210
0
220
0
230
1
0
CIRCLE
5
289
100
AcDbEntity
8
0
100
AcDbCircle
10
-21.48785354724421
20
70.141954916626318
30
0
40
1.4999999999999991
210
0
220
0
230
1
0
LINE
5
290
100
AcDbEntity
8
0
100
AcDbLine
10
-86.473510240072386
20
85.78726002879597
30
0
11
-96.138986460916243
21
95.452736249639841
31
0
0
LINE
5
291
100
AcDbEntity
8
0
100
AcDbLine
10
-108.64074437248385
20
34.248702135636123
30
0
11
-98.975268151639995
21
24.583225914792216
31
0
0
CIRCLE
5
292
100
AcDbEntity
8
0
100
AcDbCircle
10
-120.25416692153193
20
-40.938925324577724
30
0
40
1.4999999999999973
210
0
220
0
230
1
0
CIRCLE
5
293
100
AcDbEntity
8
0
100
AcDbCircle
10
-120.25416692153193
20
-40.938925324577724
30
0
40
3.4999999999999942
210
0
220
0
230
1
0
CIRCLE
5
294
100
AcDbEntity
8
0
100
AcDbCircle
10
-110.50966276337999
20
-40.556787906610907
30
0
40
1.4999999999999973
210
0
220
0
230
1
0
CIRCLE
5
295
100
AcDbEntity
8
0
100
AcDbCircle
10
-110.50966276337999
20
-40.556787906610907
30
0
40
3.4999999999999942
210
0
220
0
230
1
0
CIRCLE
5
296
100
AcDbEntity
8
0
100
AcDbCircle
10
-111.22033528694251
20
-31.140376969407431
30
0
40
1.4999999999999973
210
0
220
0
230
1
0
CIRCLE
5
297
100
AcDbEntity
8
0
100
AcDbCircle
10
-120.96483944509446
20
-31.522514387374247
30
0
40
3.4999999999999942
210
0
220
0
230
1
0
CIRCLE
5
298
100
AcDbEntity
8
0
100
AcDbCircle
10
-111.22033528694251
20
-31.140376969407431
30
0
40
3.4999999999999942
210
0
220
0
230
1
0
CIRCLE
5
299
100
AcDbEntity
8
0
100
AcDbCircle
10
-120.96483944509446
20
-31.522514387374247
30
0
40
1.4999999999999973
210
0
220
0
230
1
0
CIRCLE
5
300
100
AcDbEntity
8
0
100
AcDbCircle
10
-121.41974683009393
20
-19.241207026730333
30
0
40
3.4999999999999942
210
0
220
0
230
1
0
CIRCLE
5
301
100
AcDbEntity
8
0
100
AcDbCircle
10
-111.67524267194199
20
-18.859069608763516
30
0
40
3.4999999999999942
210
0
220
0
230
1
0
CIRCLE
5
302
100
AcDbEntity
8
0
100
AcDbCircle
10
-121.41974683009393
20
-19.241207026730333
30
0
40
1.4999999999999973
210
0
220
0
230
1
0
CIRCLE
5
303
100
AcDbEntity
8
0
100
AcDbCircle
10
-111.67524267194199
20
-18.859069608763516
30
0
40
1.4999999999999973
210
0
220
0
230
1
0
CIRCLE
5
304
100
AcDbEntity
8
0
100
AcDbCircle
10
-112.38591519550452
20
-9.4426586715600447
30
0
40
1.4999999999999973
210
0
220
0
230
1
0
CIRCLE
5
305
100
AcDbEntity
8
0
100
AcDbCircle
10
-122.13041935365645
20
-9.8247960895268616
30
0
40
1.4999999999999973
210
0
220
0
230
1
0
CIRCLE
5
306
100
AcDbEntity
8
0
100
AcDbCircle
10
-122.13041935365645
20
-9.8247960895268616
30
0
40
3.4999999999999942
210
0
220
0
230
1
0
CIRCLE
5
307
100
AcDbEntity
8
0
100
AcDbCircle
10
-112.38591519550452
20
-9.4426586715600447
30
0
40
3.4999999999999942
210
0
220
0
230
1
0
CIRCLE
5
308
100
AcDbEntity
8
0
100
AcDbCircle
10
-94.168052212066655
20
-31.083222793390163
30
0
40
1.4999999999999973
210
0
220
0
230
1
0
CIRCLE
5
309
100
AcDbEntity
8
0
100
AcDbCircle
10
-95.333632120628636
20
-9.3855044955427953
30
0
40
3.4999999999999942
210
0
220
0
230
1
0
CIRCLE
5
310
100
AcDbEntity
8
0
100
AcDbCircle
10
-85.589127962476709
20
-9.0033670775759784
30
0
40
1.4999999999999973
210
0
220
0
230
1
0
CIRCLE
5
311
100
AcDbEntity
8
0
100
AcDbCircle
10
-95.333632120628636
20
-9.3855044955427953
30
0
40
1.4999999999999973
210
0
220
0
230
1
0
CIRCLE
5
312
100
AcDbEntity
8
0
100
AcDbCircle
10
-85.589127962476709
20
-9.0033670775759784
30
0
40
3.4999999999999942
210
0
220
0
230
1
0
CIRCLE
5
313
100
AcDbEntity
8
0
100
AcDbCircle
10
-94.622959597066114
20
-18.801915432746256
30
0
40
1.4999999999999973
210
0
220
0
230
1
0
CIRCLE
5
314
100
AcDbEntity
8
0
100
AcDbCircle
10
-83.712875530352193
20
-40.117496312626805
30
0
40
3.4999999999999942
210
0
220
0
230
1
0
CIRCLE
5
315
100
AcDbEntity
8
0
100
AcDbCircle
10
-84.423548053914715
20
-30.701085375423347
30
0
40
1.4999999999999973
210
0
220
0
230
1
0
CIRCLE
5
316
100
AcDbEntity
8
0
100
AcDbCircle
10
-94.168052212066655
20
-31.083222793390163
30
0
40
3.4999999999999942
210
0
220
0
230
1
0
CIRCLE
5
317
100
AcDbEntity
8
0
100
AcDbCircle
10
-84.878455438914216
20
-18.419778014779443
30
0
40
1.4999999999999973
210
0
220
0
230
1
0
CIRCLE
5
318
100
AcDbEntity
8
0
100
AcDbCircle
10
-93.457379688504119
20
-40.499633730593622
30
0
40
3.4999999999999942
210
0
220
0
230
1
0
CIRCLE
5
319
100
AcDbEntity
8
0
100
AcDbCircle
10
-94.622959597066114
20
-18.801915432746256
30
0
40
3.4999999999999942
210
0
220
0
230
1
0
CIRCLE
5
320
100
AcDbEntity
8
0
100
AcDbCircle
10
-83.712875530352193
20
-40.117496312626805
30
0
40
1.4999999999999973
210
0
220
0
230
1
0
CIRCLE
5
321
100
AcDbEntity
8
0
100
AcDbCircle
10
-93.457379688504119
20
-40.499633730593622
30
0
40
1.4999999999999973
210
0
220
0
230
1
0
CIRCLE
5
322
100
AcDbEntity
8
0
100
AcDbCircle
10
-84.878455438914216
20
-18.419778014779443
30
0
40
3.4999999999999942
210
0
220
0
230
1
0
CIRCLE
5
323
100
AcDbEntity
8
0
100
AcDbCircle
10
-84.423548053914715
20
-30.701085375423347
30
0
40
3.4999999999999942
210
0
220
0
230
1
0
ENDSEC
0
SECTION
2
OBJECTS
0
DICTIONARY
5
C
100
AcDbDictionary
3
ACAD_GROUP
350
D
3
ACAD_MLINESTYLE
350
17
0
DICTIONARY
5
D
100
AcDbDictionary
0
DICTIONARY
5
1A
330
C
100
AcDbDictionary
0
DICTIONARY
5
17
100
AcDbDictionary
0
ENDSEC
0
EOF
